<svg width="607" height="194" viewBox="0 0 607 194" fill="none" xmlns="http://www.w3.org/2000/svg">
<path d="M523.134 22.1635C525.714 21.5179 528.367 20.8724 531.163 20.2268C531.037 19.849 530.939 19.5265 530.85 19.235L530.849 19.234C530.736 18.862 530.638 18.5401 530.518 18.2185C524.854 6.814 515.678 0.430355 502.989 0.286901C472.593 -4.10422e-06 442.197 0 411.801 0C409.507 0 407.141 0.358628 404.919 1.00417C390.796 4.94912 381.549 17.7164 382.337 31.99C383.126 47.1242 393.162 58.5287 408.073 61.1109C410.156 61.4755 412.276 61.6509 414.433 61.8296C415.247 61.8969 416.066 61.9648 416.891 62.0433V65.4862C416.796 70.3626 416.668 75.239 416.541 80.1154C416.286 89.8712 416.031 99.6269 416.031 109.383C416.031 126.525 416.748 143.668 420.906 160.38C422.053 164.899 423.558 169.346 425.422 173.578C432.519 189.501 444.921 195.167 461.697 193.805C474.529 192.729 483.346 185.987 488.723 174.51C490.157 171.498 491.375 168.342 492.379 165.114C492.523 164.662 492.655 164.261 492.772 163.904C493.298 162.303 493.535 161.578 493.327 161.021C493.155 160.561 492.68 160.214 491.812 159.582C491.4 159.281 490.899 158.916 490.3 158.444C479.045 149.478 472.88 138.432 476.823 123.513C479.69 112.61 485.927 105.079 497.326 102.569C497.637 102.48 497.92 102.308 498.228 102.122C498.416 102.008 498.613 101.889 498.831 101.78L498.829 101.778L498.827 101.776C498.328 101.276 498.042 100.99 497.756 100.776C479.547 86.7889 477.038 58.457 492.737 40.2385C500.838 30.8424 511.233 25.2477 523.134 22.1635Z" fill="#fff"/>
<path fill-rule="evenodd" clip-rule="evenodd" d="M67.4093 182.4C63.9656 182.4 60.5299 182.392 57.0969 182.384C50.2387 182.368 43.391 182.352 36.5116 182.4C22.8908 182.544 13.6428 176.088 8.26621 163.751C4.53844 155.144 2.81798 146.107 1.88599 136.854C-0.623105 112.395 -0.408004 87.8648 1.24087 63.3344C1.95775 52.432 3.60645 41.6013 7.83618 31.3444C11.6357 22.2352 17.4424 15.1343 27.5505 12.7673C30.3463 12.1217 33.2856 11.7631 36.1532 11.7631C55.4373 11.6914 74.7216 11.6914 94.0775 11.7631C106.695 11.8348 118.667 14.4887 129.42 21.3744C154.152 37.2977 151.787 66.849 139.026 82.5571C135.728 86.6455 131.786 89.8014 126.983 91.9532C126.337 92.2401 125.549 93.0291 125.621 93.6029C125.621 94.1767 126.409 94.9657 127.054 95.1809C139.815 99.1976 146.912 108.594 150.281 120.859C154.511 136.352 152.575 151.056 142.109 163.895C134.151 173.578 123.398 178.742 111.283 180.894C105.834 181.898 100.243 182.185 94.7227 182.328C88.3495 182.529 81.9762 182.484 75.6029 182.439C72.8717 182.42 70.1405 182.4 67.4093 182.4ZM80.9585 129.394C85.5465 129.394 88.7009 126.238 88.7009 121.72C88.7009 117.201 85.4032 113.902 80.9585 113.902C76.4421 113.902 73.2879 117.057 73.2879 121.72C73.2879 126.382 76.2988 129.394 80.9585 129.394ZM79.3814 70.507C83.3958 70.5787 86.6218 67.3511 86.6218 63.4061C86.6218 59.4612 83.4676 56.3769 79.3096 56.3052C75.3668 56.2335 72.3559 59.1025 72.2841 62.9757C72.2125 67.1359 75.295 70.507 79.3814 70.507Z" fill="#fff"/>
<path fill-rule="evenodd" clip-rule="evenodd" d="M409.555 101.774C409.526 106.248 409.497 110.739 409.651 115.193C409.722 118.205 409.149 120.859 407.93 123.585C399.184 143.238 384.13 156.005 364.559 163.895C346.995 170.996 329.073 172.143 311.151 165.401C291.723 158.085 278.532 144.098 270.001 125.521C264.195 112.826 261.614 99.5562 263.478 85.5696C265.198 72.1567 270.503 60.2501 279.536 50.3519C296.598 31.5596 318.033 21.7331 343.482 21.3027C354.092 21.0875 364.2 23.7414 373.663 28.5471C375.24 29.3361 375.814 30.2685 375.885 32.0617C376.746 49.9933 387.857 63.1192 405.278 67.0642C408.002 67.638 409.722 70.5788 409.722 74.8823C409.722 78.3702 409.659 81.858 409.595 85.3459C409.563 87.0941 409.531 88.8422 409.507 90.5904V96.4003H409.579C409.579 98.1763 409.567 99.9581 409.555 101.742V101.774ZM343.267 79.6163C343.267 73.0892 338.177 67.9966 331.582 68.0683C324.628 68.1401 318.749 73.663 318.678 80.1184C318.606 86.5737 323.983 91.8098 330.578 91.738C337.604 91.738 343.267 86.2868 343.267 79.6163Z" fill="#fff"/>
<path fill-rule="evenodd" clip-rule="evenodd" d="M137.808 93.1009C145.048 86.8607 149.78 79.5446 152.36 70.8657C154.941 62.0433 155.801 53.221 153.364 44.2552C152.862 42.462 153.651 41.6013 154.869 40.6689C166.626 31.8465 179.96 26.754 194.37 24.4587C210.571 21.8766 226.415 23.0959 241.684 29.5513C252.438 34.1418 261.542 40.9558 268.854 50.2085C269.715 51.2844 270.001 52.0734 269.141 53.3644C254.66 75.3127 252.939 98.5521 261.972 122.939C263.621 127.457 265.842 131.759 268.064 136.062L268.066 136.065C268.854 137.571 268.639 138.432 267.636 139.651C258.459 150.625 246.918 158.085 233.44 162.675C219.031 167.696 204.191 169.346 188.993 167.266C177.451 165.688 166.77 161.6 157.163 154.929C155.801 153.997 155.515 153.136 156.016 151.558C160.461 137.141 159.386 123.083 152.647 109.598C149.349 102.784 144.546 97.1893 137.808 93.1009ZM209.855 109.885C203.904 109.885 199.316 114.188 199.316 119.783C199.316 124.947 203.689 129.108 209.281 129.179C214.729 129.251 219.604 124.732 219.604 119.496C219.676 114.188 215.231 109.885 209.855 109.885Z" fill="#fff"/>
<path d="M499.978 157.368C514.172 165.831 529.729 169.274 546.002 169.561C560.627 169.346 574.606 166.836 587.08 159.089C601.919 149.98 609.303 136.926 606.364 119.281C604.07 105.294 596.543 95.0375 582.563 90.3752C580.198 89.5863 577.814 88.869 575.43 88.1517C573.047 87.4344 570.663 86.7172 568.297 85.9282C565.788 85.0675 563.279 84.135 560.913 83.0591C559.265 82.2701 558.548 80.8356 559.265 79.0425C559.981 77.321 561.487 76.7472 563.207 77.1059C564.059 77.2851 564.91 77.6045 565.761 77.9239C566.272 78.1156 566.783 78.3072 567.294 78.4687C567.898 78.6571 568.502 78.8491 569.106 79.0413C575.173 80.9695 581.277 82.9097 587.796 81.4094C596.758 79.4011 603.783 74.9541 606.077 65.6296C607.869 58.5287 605.934 51.7147 601.847 45.6897C596.901 38.3019 589.732 33.7114 581.56 30.8423C564.641 24.889 547.292 23.9566 529.729 27.1126C518.115 29.2643 507.72 33.9983 499.261 42.6055C483.561 58.6722 485.354 86.2868 505.857 98.6237C511.95 102.282 518.617 104.577 525.427 106.514C527.793 107.159 530.231 108.092 532.166 109.526C533.17 110.243 533.887 112.467 533.528 113.686C533.242 114.69 531.378 115.623 530.087 115.91C528.725 116.197 527.004 115.91 525.642 115.408C522.632 114.26 519.764 112.826 516.896 111.391C510.731 108.379 504.351 107.159 497.684 109.024C484.135 112.754 477.611 130.614 485.067 143.238C488.651 149.406 493.956 153.781 499.978 157.368Z" fill="#fff"/>
</svg>
